<!DOCTYPE svg PUBLIC "-//W3C//DTD SVG 1.1//EN" "http://www.w3.org/Graphics/SVG/1.1/DTD/svg11.dtd">
<!-- Uploaded to: SVG Repo, www.svgrepo.com, Transformed by: SVG Repo Mixer Tools -->
<svg height="800px" width="800px" version="1.1" id="Layer_1" xmlns="http://www.w3.org/2000/svg" xmlns:xlink="http://www.w3.org/1999/xlink" viewBox="0 0 512 512" xml:space="preserve" fill="#000000">
<g id="SVGRepo_bgCarrier" stroke-width="0"/>
<g id="SVGRepo_tracerCarrier" stroke-linecap="round" stroke-linejoin="round"/>
<g id="SVGRepo_iconCarrier"> <g> <circle style="fill:#999999;" cx="256" cy="53.632" r="53.632"/> <path style="fill:#999999;" d="M348.512,226.152v-47.464c0-49.976-54.544-50.888-54.544-50.888h-75.936 c0,0-54.544,0.608-54.544,50.888v47.472L348.512,226.152z"/> </g> <g> <circle style="fill:#333333;" cx="392.287" cy="339.46" r="53.632"/> <path style="fill:#333333;" d="M484.8,512v-47.496c0-49.976-54.544-50.888-54.544-50.888h-75.936c0,0-54.544,0.608-54.544,50.888 V512H484.8z"/> </g> <g> <circle style="fill:#E21B1B;" cx="119.712" cy="339.46" r="53.632"/> <path style="fill:#E21B1B;" d="M212.224,512v-47.488c0-49.977-54.544-50.888-54.544-50.888H81.752c0,0-54.552,0.608-54.552,50.888 V512H212.224z"/> </g> </g>
</svg>